<svg width="22.000977" height="22.000244" viewBox="0 0 22.001 22.0002" fill="none" xmlns="http://www.w3.org/2000/svg" xmlns:xlink="http://www.w3.org/1999/xlink">
	<desc>
			Created with Pixso.
	</desc>
	<defs/>
	<path d="M1.07 22C0.86 22 0.65 21.93 0.47 21.81C0.3 21.7 0.16 21.53 0.08 21.33C0 21.14 -0.03 20.92 0.02 20.71C0.06 20.5 0.16 20.31 0.31 20.16L20.16 0.31C20.36 0.11 20.64 0 20.92 0C21.21 0 21.48 0.11 21.68 0.31C21.88 0.51 22 0.78 22 1.07C22 1.35 21.88 1.63 21.68 1.83L1.83 21.68C1.73 21.78 1.61 21.86 1.48 21.91C1.35 21.97 1.21 22 1.07 22Z" fill="#FBB731" fill-opacity="1.000000" fill-rule="nonzero"/>
	<path d="M20.92 22C20.78 22 20.64 21.97 20.51 21.91C20.38 21.86 20.26 21.78 20.16 21.68L0.31 1.83C0.11 1.63 0 1.35 0 1.07C0 0.78 0.11 0.51 0.31 0.31C0.51 0.11 0.78 0 1.07 0C1.35 0 1.63 0.11 1.83 0.31L21.68 20.16C21.83 20.31 21.93 20.5 21.98 20.71C22.02 20.92 22 21.14 21.91 21.33C21.83 21.53 21.7 21.7 21.52 21.81C21.34 21.93 21.13 22 20.92 22Z" fill="#FBB731" fill-opacity="1.000000" fill-rule="nonzero"/>
</svg>
